<svg width="115" height="165" viewBox="0 0 115 165" fill="none" xmlns="http://www.w3.org/2000/svg">
<path d="M57.5 1.4375C64.8786 1.4375 72.185 2.89116 79.002 5.71484C85.8189 8.53853 92.013 12.6771 97.2305 17.8945C102.448 23.112 106.586 29.3061 109.41 36.123C112.234 42.94 113.688 50.2464 113.688 57.625C113.688 69.986 107.789 84.6573 98.9336 100.583L98.0674 102.128C89.2271 117.767 77.2505 135.236 64.0068 153.853L61.3418 157.591H61.3408L57.5 162.971L53.6592 157.591C39.8188 138.199 27.1767 119.984 17.8271 103.698L16.9326 102.128C7.59768 85.6061 1.3125 70.3848 1.3125 57.625C1.3125 42.7231 7.23233 28.4317 17.7695 17.8945C28.3067 7.35733 42.5981 1.4375 57.5 1.4375ZM57.5 28.0312C49.6512 28.0313 42.1241 31.1493 36.5742 36.6992C31.0243 42.2491 27.9063 49.7762 27.9062 57.625C27.9063 65.4738 31.0243 73.0009 36.5742 78.5508C42.1241 84.1007 49.6512 87.2188 57.5 87.2188C65.3488 87.2188 72.8759 84.1007 78.4258 78.5508C83.9757 73.0009 87.0938 65.4738 87.0938 57.625C87.0938 49.7762 83.9757 42.2491 78.4258 36.6992C72.8759 31.1493 65.3488 28.0312 57.5 28.0312Z" fill="#C61C1C" stroke="black" stroke-width="2"/>
</svg>
